<mxfile host="app.diagrams.net" agent="Mozilla/5.0 (Windows NT 10.0; Win64; x64) AppleWebKit/537.36 (KHTML, like Gecko) Chrome/138.0.0.0 Safari/537.36 GLS/100.10.9645.97" version="28.0.7">
  <diagram name="PÃ¡gina-1" id="dUXgnm7yONLz69N2s4dn">
    <mxGraphModel dx="1797" dy="959" grid="1" gridSize="10" guides="1" tooltips="1" connect="1" arrows="1" fold="1" page="1" pageScale="1" pageWidth="1169" pageHeight="1654" math="0" shadow="0">
      <root>
        <mxCell id="0" />
        <mxCell id="1" parent="0" />
        <mxCell id="Ir2DKbdVODXzLXh9O0Dr-15" style="edgeStyle=orthogonalEdgeStyle;rounded=0;orthogonalLoop=1;jettySize=auto;html=1;entryX=0.489;entryY=0.88;entryDx=0;entryDy=0;entryPerimeter=0;" edge="1" parent="1" source="Ir2DKbdVODXzLXh9O0Dr-10" target="Ir2DKbdVODXzLXh9O0Dr-13">
          <mxGeometry relative="1" as="geometry" />
        </mxCell>
        <mxCell id="Ir2DKbdVODXzLXh9O0Dr-10" value="" style="image;points=[];aspect=fixed;html=1;align=center;shadow=0;dashed=0;image=img/lib/allied_telesis/computer_and_terminals/Personal_Computer.svg;" vertex="1" parent="1">
          <mxGeometry x="60" y="280" width="50" height="67.76" as="geometry" />
        </mxCell>
        <mxCell id="Ir2DKbdVODXzLXh9O0Dr-16" style="edgeStyle=orthogonalEdgeStyle;rounded=0;orthogonalLoop=1;jettySize=auto;html=1;" edge="1" parent="1" source="Ir2DKbdVODXzLXh9O0Dr-11" target="Ir2DKbdVODXzLXh9O0Dr-14">
          <mxGeometry relative="1" as="geometry">
            <mxPoint x="360" y="200" as="targetPoint" />
          </mxGeometry>
        </mxCell>
        <mxCell id="Ir2DKbdVODXzLXh9O0Dr-11" value="" style="sketch=0;outlineConnect=0;fontColor=#232F3E;gradientColor=none;fillColor=#7AA116;strokeColor=none;dashed=0;verticalLabelPosition=bottom;verticalAlign=top;align=center;html=1;fontSize=12;fontStyle=0;aspect=fixed;pointerEvents=1;shape=mxgraph.aws4.http_protocol;" vertex="1" parent="1">
          <mxGeometry x="210" y="140" width="50" height="50" as="geometry" />
        </mxCell>
        <mxCell id="Ir2DKbdVODXzLXh9O0Dr-17" style="edgeStyle=orthogonalEdgeStyle;rounded=0;orthogonalLoop=1;jettySize=auto;html=1;" edge="1" parent="1" source="Ir2DKbdVODXzLXh9O0Dr-13" target="Ir2DKbdVODXzLXh9O0Dr-11">
          <mxGeometry relative="1" as="geometry" />
        </mxCell>
        <mxCell id="Ir2DKbdVODXzLXh9O0Dr-13" value="" style="sketch=0;aspect=fixed;pointerEvents=1;shadow=0;dashed=0;html=1;strokeColor=none;labelPosition=center;verticalLabelPosition=bottom;verticalAlign=top;align=center;fillColor=#00188D;shape=mxgraph.azure.script_file" vertex="1" parent="1">
          <mxGeometry x="140" y="200" width="47" height="50" as="geometry" />
        </mxCell>
        <mxCell id="Ir2DKbdVODXzLXh9O0Dr-30" value="" style="group" vertex="1" connectable="0" parent="1">
          <mxGeometry x="430" y="475" width="97.5" height="110" as="geometry" />
        </mxCell>
        <mxCell id="Ir2DKbdVODXzLXh9O0Dr-22" value="" style="image;aspect=fixed;html=1;points=[];align=center;fontSize=12;image=img/lib/azure2/networking/Private_Endpoint.svg;" vertex="1" parent="Ir2DKbdVODXzLXh9O0Dr-30">
          <mxGeometry x="20.46142857142857" y="10" width="56.57142857142857" height="51.857142857142854" as="geometry" />
        </mxCell>
        <mxCell id="Ir2DKbdVODXzLXh9O0Dr-28" value="Buscar por Titulo e/ou Categoria" style="rounded=0;whiteSpace=wrap;html=1;" vertex="1" parent="Ir2DKbdVODXzLXh9O0Dr-30">
          <mxGeometry y="71.5" width="97.5" height="38.5" as="geometry" />
        </mxCell>
        <mxCell id="Ir2DKbdVODXzLXh9O0Dr-31" value="" style="group" vertex="1" connectable="0" parent="1">
          <mxGeometry x="440" y="310" width="90" height="124" as="geometry" />
        </mxCell>
        <mxCell id="Ir2DKbdVODXzLXh9O0Dr-21" value="" style="image;aspect=fixed;html=1;points=[];align=center;fontSize=12;image=img/lib/azure2/networking/Private_Endpoint.svg;" vertex="1" parent="Ir2DKbdVODXzLXh9O0Dr-31">
          <mxGeometry x="2.5" width="72" height="66" as="geometry" />
        </mxCell>
        <mxCell id="Ir2DKbdVODXzLXh9O0Dr-29" value="Buscar detalhes pelo ID do Livro" style="rounded=0;whiteSpace=wrap;html=1;" vertex="1" parent="Ir2DKbdVODXzLXh9O0Dr-31">
          <mxGeometry y="80" width="90" height="44" as="geometry" />
        </mxCell>
        <mxCell id="Ir2DKbdVODXzLXh9O0Dr-33" value="" style="group" vertex="1" connectable="0" parent="1">
          <mxGeometry x="450" y="610" width="80" height="120" as="geometry" />
        </mxCell>
        <mxCell id="Ir2DKbdVODXzLXh9O0Dr-23" value="" style="image;aspect=fixed;html=1;points=[];align=center;fontSize=12;image=img/lib/azure2/networking/Private_Endpoint.svg;" vertex="1" parent="Ir2DKbdVODXzLXh9O0Dr-33">
          <mxGeometry x="4" y="10" width="72" height="66" as="geometry" />
        </mxCell>
        <mxCell id="Ir2DKbdVODXzLXh9O0Dr-26" value="Listar Categorias" style="rounded=0;whiteSpace=wrap;html=1;" vertex="1" parent="Ir2DKbdVODXzLXh9O0Dr-33">
          <mxGeometry y="80" width="80" height="40" as="geometry" />
        </mxCell>
        <mxCell id="Ir2DKbdVODXzLXh9O0Dr-34" value="" style="group" vertex="1" connectable="0" parent="1">
          <mxGeometry x="440" y="772" width="80" height="110" as="geometry" />
        </mxCell>
        <mxCell id="Ir2DKbdVODXzLXh9O0Dr-24" value="" style="image;aspect=fixed;html=1;points=[];align=center;fontSize=12;image=img/lib/azure2/networking/Private_Endpoint.svg;" vertex="1" parent="Ir2DKbdVODXzLXh9O0Dr-34">
          <mxGeometry x="4" y="10" width="72" height="66" as="geometry" />
        </mxCell>
        <mxCell id="Ir2DKbdVODXzLXh9O0Dr-25" value="Status Api" style="rounded=0;whiteSpace=wrap;html=1;" vertex="1" parent="Ir2DKbdVODXzLXh9O0Dr-34">
          <mxGeometry y="80" width="80" height="30" as="geometry" />
        </mxCell>
        <mxCell id="Ir2DKbdVODXzLXh9O0Dr-35" value="" style="group" vertex="1" connectable="0" parent="1">
          <mxGeometry x="440" y="130" width="90" height="110" as="geometry" />
        </mxCell>
        <mxCell id="Ir2DKbdVODXzLXh9O0Dr-18" value="" style="image;aspect=fixed;html=1;points=[];align=center;fontSize=12;image=img/lib/azure2/networking/Private_Endpoint.svg;" vertex="1" parent="Ir2DKbdVODXzLXh9O0Dr-35">
          <mxGeometry width="72" height="66" as="geometry" />
        </mxCell>
        <mxCell id="Ir2DKbdVODXzLXh9O0Dr-27" value="Listar todos livros definidos" style="rounded=0;whiteSpace=wrap;html=1;" vertex="1" parent="Ir2DKbdVODXzLXh9O0Dr-35">
          <mxGeometry y="66" width="90" height="44" as="geometry" />
        </mxCell>
        <mxCell id="Ir2DKbdVODXzLXh9O0Dr-37" value="" style="group" vertex="1" connectable="0" parent="1">
          <mxGeometry x="270" y="220" width="70" height="123.88" as="geometry" />
        </mxCell>
        <mxCell id="Ir2DKbdVODXzLXh9O0Dr-14" value="" style="shape=image;html=1;verticalAlign=top;verticalLabelPosition=bottom;labelBackgroundColor=#ffffff;imageAspect=0;aspect=fixed;image=https://icons.diagrams.net/icon-cache1/Document_icons-2697/647702-excel-1195.svg" vertex="1" parent="Ir2DKbdVODXzLXh9O0Dr-37">
          <mxGeometry width="60" height="60" as="geometry" />
        </mxCell>
        <mxCell id="Ir2DKbdVODXzLXh9O0Dr-36" value="Cria base de dados em CSV" style="whiteSpace=wrap;html=1;aspect=fixed;" vertex="1" parent="Ir2DKbdVODXzLXh9O0Dr-37">
          <mxGeometry x="10" y="63.879999999999995" width="60" height="60" as="geometry" />
        </mxCell>
        <mxCell id="Ir2DKbdVODXzLXh9O0Dr-38" value="Inicia o Sistema" style="whiteSpace=wrap;html=1;aspect=fixed;" vertex="1" parent="1">
          <mxGeometry x="52.5" y="360" width="65" height="65" as="geometry" />
        </mxCell>
        <mxCell id="Ir2DKbdVODXzLXh9O0Dr-41" value="WebSrapping" style="whiteSpace=wrap;html=1;aspect=fixed;" vertex="1" parent="1">
          <mxGeometry x="133.5" y="251.94" width="66.5" height="66.5" as="geometry" />
        </mxCell>
        <mxCell id="Ir2DKbdVODXzLXh9O0Dr-42" style="edgeStyle=orthogonalEdgeStyle;rounded=0;orthogonalLoop=1;jettySize=auto;html=1;exitX=0.75;exitY=1;exitDx=0;exitDy=0;entryX=0.85;entryY=0.873;entryDx=0;entryDy=0;entryPerimeter=0;" edge="1" parent="1" source="Ir2DKbdVODXzLXh9O0Dr-41" target="Ir2DKbdVODXzLXh9O0Dr-41">
          <mxGeometry relative="1" as="geometry" />
        </mxCell>
        <UserObject label="&lt;span style=&quot;color: rgb(145, 93, 71); font-family: Consolas, &amp;quot;Courier New&amp;quot;, monospace; font-size: 14px; font-style: normal; font-variant-ligatures: normal; font-variant-caps: normal; font-weight: 400; letter-spacing: normal; orphans: 2; text-align: center; text-indent: 0px; text-transform: none; widows: 2; word-spacing: 0px; -webkit-text-stroke-width: 0px; white-space: pre; background-color: rgb(210, 210, 210); text-decoration-thickness: initial; text-decoration-style: initial; text-decoration-color: initial; display: inline !important; float: none;&quot;&gt;http://books.toscrape.com/&lt;/span&gt;" link="&lt;span style=&quot;color: rgb(145, 93, 71); font-family: Consolas, &amp;quot;Courier New&amp;quot;, monospace; font-size: 14px; font-style: normal; font-variant-ligatures: normal; font-variant-caps: normal; font-weight: 400; letter-spacing: normal; orphans: 2; text-align: center; text-indent: 0px; text-transform: none; widows: 2; word-spacing: 0px; -webkit-text-stroke-width: 0px; white-space: pre; background-color: rgb(210, 210, 210); text-decoration-thickness: initial; text-decoration-style: initial; text-decoration-color: initial; display: inline !important; float: none;&quot;&gt;http://books.toscrape.com/&lt;/span&gt;" id="Ir2DKbdVODXzLXh9O0Dr-45">
          <mxCell style="text;whiteSpace=wrap;html=1;" vertex="1" parent="1">
            <mxGeometry x="140" y="100" width="230" height="40" as="geometry" />
          </mxCell>
        </UserObject>
      </root>
    </mxGraphModel>
  </diagram>
</mxfile>
